<svg width="20" height="20" viewBox="0 0 20 20" fill="none" xmlns="http://www.w3.org/2000/svg">
<path fill-rule="evenodd" clip-rule="evenodd" d="M2.42527 2.42498C2.96711 1.88233 4.07928 1.60511 5.86862 2.20156L14.3579 5.03131C14.358 5.03136 14.3577 5.03126 14.3579 5.03131C15.7372 5.49275 16.7136 6.00871 17.3299 6.51802C17.9489 7.02954 18.1283 7.46483 18.1283 7.7838C18.1283 8.10253 17.9491 8.53707 17.3305 9.0472C16.7144 9.55529 15.7385 10.0694 14.359 10.5284L11.8386 11.3685C11.6147 11.4432 11.4389 11.6189 11.3643 11.8429L10.5243 14.3629C10.0653 15.7422 9.55057 16.7183 9.04185 17.3344C8.5311 17.9529 8.09557 18.1325 7.7758 18.1325C7.45602 18.1325 7.02049 17.9529 6.50974 17.3344C6.00102 16.7183 5.4864 15.7426 5.02743 14.3633L2.19787 5.87456C2.19795 5.87482 2.19778 5.8743 2.19787 5.87456C1.60624 4.08502 1.88255 2.96851 2.42527 2.42498ZM1.36382 1.36511C0.234119 2.4965 0.10569 4.32553 0.773726 6.34553L0.774284 6.34722L3.60416 14.8368C3.6042 14.837 3.60412 14.8367 3.60416 14.8368C4.09517 16.3123 4.68313 17.4781 5.3531 18.2895C6.0211 19.0984 6.84057 19.6325 7.7758 19.6325C8.71102 19.6325 9.53049 19.0984 10.1985 18.2895C10.8685 17.4781 11.4563 16.3127 11.9473 14.8372L12.6687 12.673L14.8326 11.9517C14.8327 11.9516 14.8325 11.9517 14.8326 11.9517C16.3079 11.4608 17.4735 10.8735 18.2848 10.2045C19.0937 9.53741 19.6283 8.71881 19.6283 7.7838C19.6283 6.84901 19.094 6.02993 18.2854 5.36176C17.4743 4.69144 16.3091 4.10231 14.8337 3.60878L6.34297 0.778535C4.32231 0.104984 2.49448 0.232763 1.36382 1.36511Z" fill="#7D7D7D"/>
<path fill-rule="evenodd" clip-rule="evenodd" d="M7.77615 7.52899C7.48285 7.82147 7.48219 8.29635 7.77467 8.58965L11.3547 12.1796C11.6472 12.4729 12.122 12.4736 12.4153 12.1811C12.7086 11.8886 12.7093 11.4138 12.4168 11.1205L8.83681 7.53047C8.54433 7.23717 8.06945 7.2365 7.77615 7.52899Z" fill="#7D7D7D"/>
</svg>
