<svg width="8" height="5" viewBox="0 0 8 5" fill="none" xmlns="http://www.w3.org/2000/svg">
<path d="M4.11042 4.49869C4.24022 4.49894 4.36602 4.45373 4.46597 4.37091L7.7993 1.59313C7.91276 1.49883 7.9841 1.36332 7.99765 1.21642C8.01119 1.06952 7.96583 0.92325 7.87153 0.809796C7.77723 0.696342 7.64172 0.624995 7.49482 0.611451C7.34791 0.597907 7.20165 0.643274 7.08819 0.737574L4.11042 3.22646L1.13264 0.826463C1.07581 0.780315 1.01042 0.745853 0.940235 0.725058C0.870047 0.704262 0.796441 0.697543 0.723648 0.705287C0.650854 0.713031 0.580308 0.735085 0.516065 0.770182C0.451823 0.805278 0.39515 0.852726 0.349304 0.909796C0.298426 0.966919 0.259893 1.03393 0.23612 1.10664C0.212346 1.17935 0.203844 1.25618 0.211146 1.33233C0.218448 1.40848 0.241395 1.48229 0.278553 1.54916C0.31571 1.61602 0.366276 1.67449 0.427082 1.72091L3.76042 4.40424C3.86324 4.47397 3.98647 4.50722 4.11042 4.49869Z" fill="#4F4F4F"/>
</svg>
