<svg width="18" height="18" viewBox="0 0 18 18" fill="none" xmlns="http://www.w3.org/2000/svg">
<path fill-rule="evenodd" clip-rule="evenodd" d="M8.58333 1.29166C4.55624 1.29166 1.29163 4.55625 1.29163 8.58332C1.29163 12.6104 4.55624 15.875 8.58333 15.875C12.6104 15.875 15.875 12.6104 15.875 8.58332C15.875 4.55625 12.6104 1.29166 8.58333 1.29166ZM0.041626 8.58332C0.041626 3.86589 3.86588 0.0416565 8.58333 0.0416565C13.3008 0.0416565 17.125 3.86589 17.125 8.58332C17.125 13.3008 13.3008 17.125 8.58333 17.125C3.86588 17.125 0.041626 13.3008 0.041626 8.58332Z" fill="#7D7D7D"/>
<path fill-rule="evenodd" clip-rule="evenodd" d="M15.2248 15.2247C15.4689 14.9806 15.8646 14.9806 16.1087 15.2247L17.7754 16.8914C18.0194 17.1355 18.0194 17.5312 17.7754 17.7753C17.5313 18.0193 17.1356 18.0193 16.8915 17.7753L15.2248 16.1086C14.9807 15.8645 14.9807 15.4688 15.2248 15.2247Z" fill="#7D7D7D"/>
</svg>
